<svg id="logo" xmlns="http://www.w3.org/2000/svg" version="1.1" xmlns:xlink="http://www.w3.org/1999/xlink" width="512"
     height="512" x="0" y="0" viewBox="0 0 512 512" style="enable-background:new 0 0 512 512" xml:space="preserve"
     class="">
    <g>
        <path
            d="M512 99.097h-14.509l10.265-10.265-35.039-35.039-10.265 10.265v-14.51h-49.548v14.509l-10.265-10.265L367.6 88.831l10.265 10.265h-14.509v49.548h14.509L367.6 158.909l35.039 35.039 10.265-10.265v14.509h16.516v35.567l-121.641 45.527c-6.408 2.403-10.719 8.621-10.719 15.467v68.6h-1.181c-11.264 0-22.057 2.923-31.62 8.299V330.32h-16.516v41.332c-9.555-5.376-20.348-8.299-31.62-8.299h-1.412v-68.484c0-6.995-4.435-13.246-11.016-15.575L74.281 233.629l-.14-20.092c14.311-3.724 24.956-16.64 24.956-32.091v-5.665l23.436-37.607a63.265 63.265 0 0 0 9.596-33.519c0-34.94-28.424-63.364-63.364-63.364h-5.401C28.424 41.29 0 69.715 0 104.844a63.39 63.39 0 0 0 9.373 33.173l23.189 37.731v5.69c0 15.492 10.694 28.441 25.063 32.116l.14 20.183c.05 6.929 4.476 13.147 11.016 15.459l129.412 45.675v68.484H49.548c-9.109 0-16.516 7.407-16.516 16.516v49.548H16.516C7.407 429.419 0 436.827 0 445.935v33.032c0 9.109 7.407 16.516 16.516 16.516h203.033l2.42 2.42C231.052 506.996 243.142 512 256 512s24.948-5.004 34.031-14.097l2.42-2.42h203.033c9.109 0 16.516-7.407 16.516-16.516v-33.032c0-9.109-7.408-16.516-16.516-16.516h-16.516v-49.548c0-9.109-7.407-16.516-16.516-16.516H313.575v-68.6l121.641-45.535c6.408-2.403 10.719-8.613 10.719-15.459v-35.567h16.516v-14.509l10.265 10.265 35.039-35.039-10.265-10.265H512zM23.445 129.379c-4.534-7.391-6.929-15.864-6.929-24.725 0-25.831 21.017-46.848 46.848-46.848h5.393c25.839 0 46.856 21.017 46.856 46.848 0 8.77-2.453 17.342-7.094 24.782L86.255 165.16H74.323v-34.428c9.835-3.287 16.987-12.478 16.987-23.395 0-13.659-11.115-24.774-24.774-24.774s-24.774 11.115-24.774 24.774c0 10.579 6.697 19.563 16.045 23.106v34.717H45.436zm34.832-22.049c0-4.55 3.708-8.258 8.258-8.258s8.258 3.708 8.258 8.258-3.708 8.258-8.258 8.258-8.258-3.708-8.258-8.258zm-9.175 74.347h33.453c-.132 9.125-7.573 16.516-16.723 16.516s-16.606-7.39-16.73-16.516zm167.02 198.194c11.759 0 22.85 4.236 31.62 11.9v12.916c-9.555-5.376-20.348-8.299-31.62-8.299H49.548v-16.516h166.574zM49.548 412.903h166.573c11.759 0 22.85 4.236 31.62 11.9v20.29c-15.137-10.157-32.908-15.674-51.555-15.674H49.548zm445.936 66.065h-209.87l-7.259 7.259c-11.941 11.933-32.768 11.933-44.709 0l-7.259-7.259H16.516v-33.032h179.671c20.389 0 39.556 7.936 53.975 22.355l5.838 5.838 5.838-5.838c14.419-14.419 33.586-22.355 53.975-22.355h179.671zm-179.671-49.549c-18.638 0-36.41 5.516-51.555 15.674v-20.29c8.77-7.663 19.861-11.9 31.62-11.9h166.573v16.516zm146.639-33.032H295.878c-11.264 0-22.057 2.923-31.62 8.299V391.77c8.77-7.663 19.861-11.9 31.62-11.9h166.573v16.517zm33.032-264.134c-5.871.71-10.95 4.501-13.254 10.075s-1.404 11.842 2.246 16.5l-11.85 11.85c-4.649-3.658-10.925-4.558-16.5-2.246a16.465 16.465 0 0 0-10.075 13.254h-16.756a16.45 16.45 0 0 0-10.075-13.254c-5.574-2.312-11.85-1.412-16.5 2.246l-11.85-11.85a16.456 16.456 0 0 0 2.246-16.5 16.465 16.465 0 0 0-13.254-10.075v-16.756c5.871-.71 10.95-4.501 13.254-10.075s1.404-11.842-2.246-16.5l11.85-11.85c4.649 3.65 10.925 4.55 16.5 2.246a16.45 16.45 0 0 0 10.075-13.254h16.756a16.45 16.45 0 0 0 10.075 13.254c5.566 2.296 11.842 1.404 16.5-2.246l11.85 11.85a16.456 16.456 0 0 0-2.246 16.5 16.465 16.465 0 0 0 13.254 10.075z"
            fill="currentColor" opacity="1" class=""></path>
        <path
            d="M437.677 82.581c-22.767 0-41.29 18.523-41.29 41.29s18.523 41.29 41.29 41.29 41.29-18.523 41.29-41.29-18.522-41.29-41.29-41.29zm0 66.064c-13.659 0-24.774-11.115-24.774-24.774s11.115-24.774 24.774-24.774 24.774 11.115 24.774 24.774-11.115 24.774-24.774 24.774zM175.319 183.602l8.043 4.022c6.929 16.343 22.974 27.086 41.117 27.086 8.365 0 16.326-2.411 23.263-6.697v72.762h16.516v-72.77c6.953 4.294 14.947 6.706 23.436 6.706a44.42 44.42 0 0 0 41.175-27.648l4.74-3.155a48.164 48.164 0 0 0 21.487-40.151v-3.311c0-12.404-4.649-24.097-13.122-33.082 8.473-8.993 13.122-20.686 13.122-33.09v-3.32a48.167 48.167 0 0 0-21.487-40.151l-4.74-3.155C322.073 10.991 305.87 0 287.521 0c-11.883 0-23.057 4.633-31.463 13.031l-.058.066-.066-.066C247.535 4.633 236.362 0 224.306 0a44.414 44.414 0 0 0-40.943 27.086l-8.043 4.022c-16.458 8.233-26.674 24.774-26.674 43.165 0 12.404 4.649 24.097 13.122 33.082-8.473 8.985-13.122 20.678-13.122 33.082-.001 18.399 10.223 34.94 26.673 43.165zM287.694 16.516c10.405 0 19.737 5.739 24.559 14.65l-18.382 18.382h-13.097v16.516h8.258v8.258h16.516V61.225l17.565-17.565 1.33.884a31.68 31.68 0 0 1 14.138 26.409v3.311c0 8.481-3.303 16.45-9.299 22.445l-2.378 2.387h-16.252l-5.979-11.949-14.774 7.391 6.417 12.817-6.408 12.825 14.774 7.391 5.971-11.958h16.252l2.378 2.378c5.995 5.995 9.299 13.964 9.299 22.445v3.311a31.69 31.69 0 0 1-14.13 26.409l-1.33.884-17.573-17.557v-13.097h-16.516v8.258h-8.258v16.516h13.097l18.382 18.382c-4.831 8.91-14.179 14.65-24.733 14.65-7.474 0-14.493-2.915-19.786-8.192l-3.477-3.485V28.193l3.485-3.485c5.285-5.277 12.313-8.192 19.951-8.192zM174.46 117.991l2.378-2.378h16.252l5.979 11.949 14.774-7.391-6.417-12.817 6.408-12.825-14.774-7.391-5.971 11.958h-16.252l-2.378-2.378c-5.995-5.995-9.299-13.964-9.299-22.445 0-12.098 6.722-22.982 17.548-28.391l5.599-2.799 18.143 18.143v13.097h16.516v-8.258h8.258V49.548h-13.097l-18.382-18.382c4.831-8.91 14.179-14.65 24.733-14.65 7.474 0 14.493 2.915 19.786 8.192l3.477 3.485v158.324l-3.485 3.485c-5.285 5.277-12.313 8.192-19.951 8.192-10.405 0-19.737-5.739-24.559-14.65l18.382-18.382h13.097v-16.516h-8.258v-8.258h-16.516v13.097l-18.143 18.143-5.599-2.799c-10.826-5.409-17.548-16.285-17.548-28.391 0-8.482 3.304-16.451 9.299-22.447zM247.742 297.29h16.516v16.516h-16.516z"
            fill="currentColor" opacity="1" class=""></path></g></svg>